#!OML:ASF X:\für Bonn\!DataBase\2005_08_11_Bastian_Final\c3d\Bastian.ASF
:FULLY-SPECIFIED
:DEGREES
121
root -1.54993 16.6366 2.11405 176.33 -5.51695 -174.587
lowerback 20.6924 -0.797909 1.13779
upperback 4.96809 -1.56972 1.62868
thorax -6.13849 -1.14367 1.54198
lowerneck -13.1568 -5.20336 -3.35614
upperneck -6.94982 -7.58889 11.8495
head 0.69583 -4.13051 4.12382
rclavicle -2.06736e-014 2.46493e-014
rhumerus 76.7105 16.2121 15.8759
rradius 39.0446
rwrist -65.5323
rhand -49.8222 -8.4796
rfingers 7.12502
rthumb -22.4184 -37.1986
lclavicle -2.06736e-014 2.46493e-014
lhumerus 74.1265 -19.3592 -31.2524
lradius 31.3415
lwrist 26.5607
lhand -44.9029 20.6381
lfingers 7.12502
lthumb -17.6902 49.8534
rfemur -19.8768 -3.87314 26.6673
rtibia 53.5966
rfoot -25.7114 -6.73338
rtoes -6.22332
lfemur -19.1785 0.54124 -15.2297
ltibia 52.2264
lfoot -23.6748 -5.18074
ltoes -12.5076
122
root -1.55309 16.7393 2.08511 176.382 -5.56414 -174.609
lowerback 20.2319 -0.837727 1.10633
upperback 4.90711 -1.60948 1.58782
thorax -5.96314 -1.15063 1.51074
lowerneck -13.2282 -5.24416 -3.36197
upperneck -6.67587 -7.6396 11.8563
head 0.804409 -4.13398 4.11754
rclavicle -1.49089e-014 4.37326e-015
rhumerus 77.0024 16.6347 16.5768
rradius 39.148
rwrist -65.7952
rhand -49.9325 -8.56399
rfingers 7.12502
rthumb -22.5243 -37.2702
lclavicle -1.49089e-014 4.37326e-015
lhumerus 74.4813 -19.5546 -31.9819
lradius 31.398
lwrist 26.6553
lhand -44.7696 20.3015
lfingers 7.12502
lthumb -17.5619 49.5283
rfemur -18.8934 -3.83477 26.6033
rtibia 51.902
rfoot -25.1926 -6.66119
rtoes -6.35846
lfemur -18.1354 0.495414 -15.256
ltibia 50.3218
lfoot -22.9629 -5.04152
ltoes -12.8216
123
root -1.55655 16.8329 2.05611 176.434 -5.61706 -174.654
lowerback 19.8143 -0.878819 1.03326
upperback 4.82513 -1.65539 1.5625
thorax -5.83076 -1.15947 1.52315
lowerneck -13.2673 -5.28553 -3.40722
upperneck -6.43463 -7.68337 11.8554
head 0.897516 -4.13534 4.11812
rclavicle -1.16289e-014 -4.77083e-015
rhumerus 77.3004 17.007 17.245
rradius 39.2411
rwrist -66.0364
rhand -50.0209 -8.61718
rfingers 7.12502
rthumb -22.6092 -37.3131
lclavicle -1.16289e-014 -4.77083e-015
lhumerus 74.846 -19.7416 -32.9316
lradius 31.5144
lwrist 26.9148
lhand -44.6962 20.0699
lfingers 7.12502
lthumb -17.4913 49.303
rfemur -17.9542 -3.73844 26.5196
rtibia 50.3151
rfoot -24.7412 -6.67284
rtoes -6.49826
lfemur -17.1373 0.421872 -15.3149
ltibia 48.5178
lfoot -22.306 -4.89605
ltoes -13.1784
124
root -1.55901 16.9187 2.02624 176.505 -5.70136 -174.677
lowerback 19.3829 -0.936576 0.985309
upperback 4.74069 -1.71789 1.52596
thorax -5.69356 -1.17646 1.51243
lowerneck -13.2995 -5.31368 -3.42115
upperneck -6.21086 -7.71733 11.8766
head 0.982683 -4.13489 4.12186
rclavicle 1.94809e-014 -2.14687e-014
rhumerus 77.5759 17.2939 17.9043
rradius 39.3474
rwrist -66.3808
rhand -50.1157 -8.6254
rfingers 7.12502
rthumb -22.7002 -37.3102
lclavicle 1.94809e-014 -2.14687e-014
lhumerus 75.2022 -19.8735 -33.9436
lradius 31.6321
lwrist 27.0764
lhand -44.629 19.9868
lfingers 7.12502
lthumb -17.4266 49.2257
rfemur -17.0939 -3.62382 26.4718
rtibia 48.8368
rfoot -24.351 -6.73253
rtoes -6.39463
lfemur -16.2225 0.339162 -15.345
ltibia 46.8218
lfoot -21.6938 -4.77674
ltoes -13.4853
125
root -1.56163 16.995 1.99699 176.549 -5.77312 -174.654
lowerback 19.018 -0.98896 0.959989
upperback 4.63841 -1.7659 1.53464
thorax -5.60912 -1.18715 1.53628
lowerneck -13.3289 -5.35377 -3.50557
upperneck -5.97724 -7.7536 11.8851
head 1.07368 -4.13233 4.13459
rclavicle -3.18055e-015 3.97569e-016
rhumerus 77.8536 17.5369 18.545
rradius 39.4272
rwrist -66.6996
rhand -50.1935 -8.61732
rfingers 7.12502
rthumb -22.7748 -37.2929
lclavicle -3.18055e-015 3.97569e-016
lhumerus 75.5053 -20.0022 -34.7982
lradius 31.7066
lwrist 27.0326
lhand -44.5112 19.9245
lfingers 7.12502
lthumb -17.3132 49.1733
rfemur -16.2707 -3.41271 26.4816
rtibia 47.4742
rfoot -24.0207 -6.85653
rtoes -6.27117
lfemur -15.3347 0.276643 -15.3212
ltibia 45.2325
lfoot -21.1262 -4.65909
ltoes -13.9191
126
root -1.56426 17.0626 1.96615 176.617 -5.86998 -174.677
lowerback 18.5502 -1.04723 0.924773
upperback 4.57087 -1.82985 1.50029
thorax -5.43309 -1.20653 1.5184
lowerneck -13.3807 -5.38251 -3.55826
upperneck -5.7711 -7.78654 11.9422
head 1.16053 -4.13217 4.15882
rclavicle 2.76311e-014 -1.15295e-014
rhumerus 78.066 17.7126 19.0599
rradius 39.4666
rwrist -66.9702
rhand -50.2131 -8.62141
rfingers 7.12502
rthumb -22.7936 -37.2947
lclavicle 2.76311e-014 -1.15295e-014
lhumerus 75.755 -20.0644 -35.3339
lradius 31.648
lwrist 26.6275
lhand -44.3413 19.8265
lfingers 7.12502
lthumb -17.1498 49.0896
rfemur -15.5181 -3.19097 26.4511
rtibia 46.2262
rfoot -23.7206 -7.04478
rtoes -6.08945
lfemur -14.5274 0.202322 -15.3514
ltibia 43.7587
lfoot -20.5903 -4.58707
ltoes -14.049
127
root -1.56673 17.1222 1.93558 176.669 -5.97089 -174.652
lowerback 18.0462 -1.11533 0.936213
upperback 4.53777 -1.90377 1.48965
thorax -5.20045 -1.23413 1.49886
lowerneck -13.4817 -5.41101 -3.61578
upperneck -5.57053 -7.82097 11.9879
head 1.25401 -4.13296 4.17887
rclavicle -1.0138e-014 -3.57812e-015
rhumerus 78.2679 17.8198 19.4452
rradius 39.4655
rwrist -67.1427
rhand -50.2107 -8.60916
rfingers 7.12502
rthumb -22.7913 -37.2828
lclavicle -1.0138e-014 -3.57812e-015
lhumerus 75.8833 -20.101 -35.4958
lradius 31.4938
lwrist 25.951
lhand -44.1076 19.6781
lfingers 7.12502
lthumb -16.9248 48.9606
rfemur -14.8167 -2.8625 26.4902
rtibia 45.0955
rfoot -23.4982 -7.34359
rtoes -5.82535
lfemur -13.7645 0.130295 -15.3261
ltibia 42.4008
lfoot -20.1009 -4.53476
ltoes -14.2031
128
root -1.56952 17.1743 1.90478 176.714 -6.04673 -174.652
lowerback 17.5111 -1.17081 0.936064
upperback 4.54113 -1.97 1.46989
thorax -4.91197 -1.26023 1.47171
lowerneck -13.7125 -5.43321 -3.61868
upperneck -5.28788 -7.8448 12.3003
head 1.29314 -4.11594 3.8716
rclavicle -4.57205e-015 1.98785e-014
rhumerus 78.4206 17.8744 19.6921
rradius 39.4101
rwrist -67.2046
rhand -50.2146 -8.58483
rfingers 7.12502
rthumb -22.795 -37.258
lclavicle -4.57205e-015 1.98785e-014
lhumerus 75.9322 -20.1115 -35.4143
lradius 31.284
lwrist 25.1413
lhand -43.9199 19.4756
lfingers 7.12502
lthumb -16.7441 48.7735
rfemur -14.1616 -2.52772 26.5123
rtibia 44.0793
rfoot -23.2993 -7.6989
rtoes -5.77938
lfemur -13.0449 0.0787977 -15.3294
ltibia 41.1594
lfoot -19.6905 -4.46136
ltoes -14.5123
129
root -1.57222 17.2194 1.87552 176.766 -6.11078 -174.632
lowerback 16.9924 -1.22137 0.960098
upperback 4.52933 -2.02367 1.44817
thorax -4.64886 -1.27955 1.42654
lowerneck -13.7657 -5.45371 -3.66814
upperneck -5.16159 -7.8702 12.3605
head 1.34619 -4.11782 3.89202
rclavicle -1.41137e-014 -7.95139e-015
rhumerus 78.5383 17.9488 19.8237
rradius 39.3179
rwrist -67.1792
rhand -50.1357 -8.58122
rfingers 7.12502
rthumb -22.7194 -37.2637
lclavicle -1.41137e-014 -7.95139e-015
lhumerus 76.0206 -20.0986 -35.3379
lradius 31.0651
lwrist 24.4452
lhand -43.745 19.2771
lfingers 7.12502
lthumb -16.5757 48.5892
rfemur -13.5777 -2.08472 26.5743
rtibia 43.1748
rfoot -23.1446 -8.14251
rtoes -5.65481
lfemur -12.4071 0.027691 -15.3112
ltibia 40.0385
lfoot -19.3105 -4.41124
ltoes -14.5722
